<?xml version="1.0" standalone="no"?>
<!DOCTYPE svg PUBLIC "-//W3C//DTD SVG 20010904//EN"
 "http://www.w3.org/TR/2001/REC-SVG-20010904/DTD/svg10.dtd">
<svg version="1.0" xmlns="http://www.w3.org/2000/svg"
 width="500.000000pt" height="500.000000pt" viewBox="0 0 500.000000 500.000000"
 preserveAspectRatio="xMidYMid meet">

<g transform="translate(0.000000,500.000000) scale(0.100000,-0.100000)"
fill="#000000" stroke="none">
<path d="M3558 3618 l-3 -32 -185 -63 c-102 -34 -230 -76 -285 -92 -212 -62
-265 -95 -317 -193 -22 -43 -22 -46 -28 -603 l-5 -560 -54 -17 c-30 -10 -69
-21 -87 -24 l-33 -6 -3 275 c-2 152 -6 278 -10 282 -3 4 -31 -1 -62 -11 l-56
-18 -2 -210 c-1 -116 -3 -246 -3 -288 -1 -42 -3 -79 -5 -81 -12 -8 -175 -46
-179 -41 -3 3 -7 306 -9 674 l-4 668 73 22 c41 12 98 35 127 50 29 16 59 27
66 24 15 -6 18 -44 5 -60 -7 -8 -6 -15 2 -20 8 -5 10 -3 4 7 -5 8 -4 10 0 6 5
-4 10 -14 11 -22 2 -11 -7 -9 -36 8 -21 12 -41 19 -44 16 -4 -3 -5 -141 -4
-306 l3 -301 60 19 60 18 -3 301 c-2 191 -6 299 -12 295 -6 -3 -10 3 -10 14 0
12 6 21 14 21 16 0 26 -101 26 -277 0 -74 4 -123 10 -123 5 0 13 -12 16 -26
16 -61 25 8 31 237 l6 244 149 50 c82 27 152 53 154 56 10 16 -185 67 -290 76
-68 5 -79 4 -99 -14 -12 -11 -40 -27 -62 -34 -22 -7 -46 -17 -52 -22 -20 -14
-15 -37 7 -37 13 0 18 -5 14 -15 -6 -15 -9 -16 141 30 28 8 54 15 59 15 16 0
-41 -44 -91 -70 -26 -14 -59 -39 -75 -56 -24 -27 -33 -31 -75 -29 -50 3 -73
-5 -107 -36 -12 -12 -35 -19 -60 -19 -23 0 -59 -5 -81 -10 -22 -5 -71 -12
-110 -15 -38 -3 -88 -8 -110 -11 -53 -7 -44 -1 60 40 50 19 86 36 80 36 -5 1
6 9 25 18 23 11 35 24 35 37 0 21 -15 23 -95 14 -23 -3 -35 0 -36 9 -1 6 -2
17 -3 23 0 6 -14 1 -30 -10 -16 -12 -33 -21 -38 -21 -4 0 -26 -16 -48 -36 -22
-19 -34 -33 -27 -29 6 3 12 1 12 -6 0 -7 10 -9 25 -7 13 3 22 1 19 -4 -3 -5
-24 -7 -47 -4 -41 4 -44 3 -118 -74 -70 -72 -149 -180 -132 -180 4 0 102 31
218 69 270 88 348 112 353 106 3 -3 -15 -14 -39 -25 l-44 -20 39 7 c29 4 37 2
34 -7 -4 -14 -90 -43 -193 -65 -38 -9 -79 -18 -90 -21 -30 -10 -8 9 28 23 l32
13 -35 -6 c-19 -3 -97 -26 -172 -51 -101 -33 -139 -49 -143 -63 -3 -11 -15
-22 -26 -25 -10 -4 -17 -10 -14 -15 3 -4 -10 -17 -29 -28 -26 -16 -36 -30 -44
-64 -6 -23 -24 -97 -41 -163 -60 -228 -62 -499 -5 -708 45 -164 54 -211 54
-278 l0 -66 78 -62 c74 -60 79 -62 122 -57 25 3 54 8 65 11 20 6 21 3 17 -88
l-4 -95 41 -27 c29 -20 48 -26 66 -21 17 4 43 -3 84 -24 83 -42 182 -78 276
-101 105 -26 304 -35 419 -20 141 19 345 91 346 121 0 16 79 49 130 54 14 2
44 15 66 30 23 14 47 24 55 21 21 -8 89 22 122 53 20 19 27 35 27 63 0 58 15
84 65 113 99 58 149 121 139 173 -4 21 6 47 40 107 71 125 90 222 83 439 -4
126 -11 192 -25 247 -22 82 -30 155 -19 166 4 4 7 45 7 91 0 96 -12 129 -69
184 -20 19 -57 61 -84 92 -26 31 -74 75 -107 98 -35 25 -60 49 -60 60 0 13 33
33 118 75 167 81 172 85 172 143 0 51 -11 67 -63 89 -44 19 -55 15 -59 -20z
m-154 -354 c9 -3 13 -10 10 -15 -3 -5 9 -12 26 -15 35 -7 40 -13 50 -61 8 -32
7 -33 -8 -20 -27 23 -39 27 -40 14 0 -7 -6 -55 -13 -108 l-12 -97 -39 29 c-81
58 -198 60 -254 4 -21 -21 -24 -34 -24 -94 0 -86 5 -90 141 -119 119 -25 149
-38 227 -97 73 -55 76 -74 3 -22 l-49 36 9 -32 c12 -42 12 -263 -1 -306 -23
-82 -100 -151 -206 -185 -67 -22 -154 -35 -154 -25 0 5 8 9 18 10 9 0 0 7 -21
14 -21 8 -50 24 -64 35 l-26 21 54 -7 c67 -7 173 16 235 52 36 21 44 23 44 10
0 -9 5 -16 11 -16 5 0 7 -6 3 -12 -5 -8 2 -6 16 3 14 9 39 38 55 64 29 46 30
55 33 175 5 164 -4 190 -80 218 -30 11 -67 22 -83 25 -17 3 -55 16 -85 31 -40
19 -57 22 -67 14 -7 -6 -10 -16 -6 -22 5 -7 1 -5 -7 4 -22 24 -71 34 -81 18
-6 -9 -9 -4 -9 14 0 20 8 32 28 42 15 8 23 15 19 16 -5 0 -17 -5 -28 -10 -13
-7 -19 -7 -19 0 0 5 5 10 10 10 6 0 10 5 10 11 0 5 -4 8 -9 5 -5 -3 -8 6 -8
19 0 14 5 25 13 25 7 0 15 4 18 9 4 5 -2 7 -12 4 -13 -3 -18 2 -20 21 -1 14 2
25 6 25 20 -3 33 2 27 11 -4 6 -10 8 -14 6 -4 -3 -8 1 -8 9 0 8 4 12 8 9 5 -3
18 0 30 7 20 10 21 9 15 -7 -5 -15 -1 -14 14 5 11 13 20 20 20 16 0 -4 6 -2
14 5 14 11 12 42 -2 37 -4 -1 -8 1 -9 6 -2 4 0 7 5 8 4 0 16 8 27 17 20 17 20
17 2 -4 -15 -18 -15 -22 -4 -27 9 -3 14 1 13 11 -1 11 6 16 17 16 15 -2 16 1
5 13 -10 12 -9 14 3 12 7 -1 25 3 39 9 24 10 24 11 3 11 -13 1 -23 -4 -23 -10
0 -5 -5 -7 -10 -4 -32 20 -172 -74 -150 -100 8 -10 6 -13 -6 -11 -26 2 -35
-49 -32 -182 2 -96 6 -117 18 -118 30 -2 32 -4 21 -18 -14 -17 2 -32 21 -20 6
4 8 3 4 -4 -6 -10 57 -27 167 -47 20 -4 38 -10 38 -14 9 -41 -2 -82 -13 -52
-1 6 -16 12 -33 15 -102 18 -140 27 -152 37 -7 6 -13 8 -13 3 0 -4 -7 1 -16
12 -8 10 -12 12 -8 4 7 -13 5 -13 -9 -1 -9 7 -17 9 -17 4 0 -9 -17 -10 -53 -4
-4 0 -17 22 -28 47 -18 41 -20 62 -17 183 4 148 10 168 70 237 63 71 164 116
293 129 38 4 79 13 90 21 23 16 19 16 39 8z m-1284 -184 c-8 -5 -22 -9 -30 -9
-10 0 -8 3 5 9 27 12 43 12 25 0z m70 -9 c0 -9 -89 -35 -97 -27 -2 2 15 11 39
19 52 19 58 19 58 8z m931 -18 c2 1 3 0 1 -3 -2 -3 -8 -6 -13 -6 -5 -1 -10 -2
-11 -4 -12 -9 -38 -5 -42 5 -3 9 0 12 10 8 7 -3 14 0 14 6 0 8 6 9 19 2 10 -6
20 -9 22 -8z m-1036 -31 c75 -36 108 -60 99 -73 -8 -14 -52 -11 -82 5 l-27 14
0 -197 c0 -183 -1 -199 -22 -237 -51 -96 -109 -136 -275 -190 l-88 -28 0 -267
c0 -280 0 -281 -43 -278 -7 0 -1 5 12 10 l24 10 -6 274 c-5 260 -5 274 13 280
10 3 24 12 31 21 10 12 9 13 -7 8 -18 -5 -18 -5 -1 6 10 7 27 10 38 7 10 -3
19 -1 19 3 0 11 60 31 71 24 5 -3 9 0 9 5 0 15 37 14 43 -1 3 -10 9 -8 24 5
11 9 22 15 25 12 8 -9 78 75 94 113 8 18 16 60 17 93 2 64 -10 84 -46 75 -16
-4 -18 1 -16 34 2 22 0 42 -4 46 -4 4 -7 -35 -7 -87 0 -114 -11 -159 -51 -204
-25 -28 -34 -33 -49 -25 -16 8 -18 7 -15 -9 2 -14 -1 -18 -11 -14 -7 3 -11 10
-7 16 4 6 0 8 -10 4 -10 -4 -17 -2 -17 5 0 7 -5 6 -15 -2 -8 -7 -15 -9 -15 -6
0 4 -10 1 -22 -6 -26 -14 -30 -15 -58 -17 -15 -1 -20 -9 -21 -33 l-1 -33 -8
30 c-4 17 -8 79 -9 138 -1 63 -5 106 -10 102 -11 -6 -19 22 -13 47 2 10 9 15
15 11 6 -3 7 -1 3 6 -5 7 -17 9 -29 6 -20 -6 -19 -4 5 17 26 24 27 25 7 39
-34 24 -44 17 -42 -31 1 -33 -1 -40 -8 -27 -6 9 -9 47 -7 84 l3 67 110 38 c61
21 133 42 160 47 l50 9 -61 -1 c-34 -1 -59 -6 -56 -11 3 -5 -7 -6 -24 -2 -16
4 -32 13 -36 19 -7 12 -96 -5 -162 -31 l-39 -15 7 -116 c4 -64 7 -123 8 -131
1 -8 4 -17 7 -20 25 -20 31 -60 31 -190 0 -134 -7 -172 -34 -192 -5 -3 -12
-45 -14 -92 -2 -47 -8 -83 -13 -80 -5 2 -7 192 -6 421 l2 415 50 20 c27 11
106 37 175 59 161 50 230 50 335 1z m-318 -78 c-3 -3 -12 -4 -19 -1 -8 3 -5 6
6 6 11 1 17 -2 13 -5z m1265 -184 c-11 -19 -18 -25 -20 -15 -2 8 3 21 10 29
22 26 28 18 10 -14z m-1382 5 c0 -2 -6 -5 -13 -8 -8 -3 -14 1 -14 8 0 7 6 11
14 8 7 -3 13 -6 13 -8z m1699 -175 c0 -18 -4 -12 -15 20 -17 56 -17 62 1 30 8
-14 14 -36 14 -50z m260 -123 c1 -142 -11 -233 -46 -346 -29 -92 -66 -148
-130 -197 -51 -39 -114 -63 -293 -114 -437 -124 -570 -160 -582 -159 -22 1 46
23 242 79 282 80 480 142 475 150 -2 3 -34 2 -72 -2 -37 -5 -84 -10 -103 -12
-51 -6 -98 -15 -160 -32 -30 -8 -64 -17 -75 -19 -111 -25 -336 -84 -590 -157
-274 -78 -428 -118 -433 -113 -2 2 16 9 39 15 24 7 118 33 209 60 91 26 257
73 370 104 422 116 679 188 795 224 111 34 124 40 169 86 43 44 47 46 32 18
-9 -17 -17 -35 -17 -39 0 -5 -5 -13 -9 -18 -5 -6 -5 -16 -1 -23 11 -19 66 40
95 103 52 108 81 311 72 490 -4 72 -3 89 4 60 5 -22 9 -93 9 -158z m-333 -44
c-10 -37 -65 -92 -106 -104 -45 -14 -70 -6 -160 48 -30 18 -60 33 -67 33 -9 0
-13 -32 -16 -107 l-3 -108 -2 123 -2 122 100 -50 c108 -54 126 -58 170 -35 45
23 70 62 70 111 0 63 14 90 18 35 2 -25 1 -55 -2 -68z m-1449 31 c-3 -3 -12
-4 -19 -1 -8 3 -5 6 6 6 11 1 17 -2 13 -5z m368 -283 c-12 -10 -206 -63 -211
-58 -4 4 191 65 211 66 6 1 6 -2 0 -8z m1225 -34 c0 -2 -10 -12 -22 -23 l-23
-19 19 23 c18 21 26 27 26 19z m-1453 -33 c-3 -3 -12 -4 -19 -1 -8 3 -5 6 6 6
11 1 17 -2 13 -5z m233 -78 c0 -10 -260 -79 -268 -72 -2 3 16 10 39 16 24 6
80 22 124 35 80 24 105 29 105 21z m1254 -15 c3 -5 -2 -15 -12 -22 -15 -12
-16 -12 -5 2 7 9 10 19 6 22 -3 4 -4 7 0 7 3 0 8 -4 11 -9z m-1259 -130 c-6
-5 -61 -23 -124 -41 -62 -17 -121 -34 -130 -37 -11 -4 -13 -3 -6 5 6 6 64 26
130 45 133 39 143 41 130 28z m142 -87 c-3 -3 -12 -4 -19 -1 -8 3 -5 6 6 6 11
1 17 -2 13 -5z m-40 -10 c-3 -3 -12 -4 -19 -1 -8 3 -5 6 6 6 11 1 17 -2 13 -5z
m-187 -49 c-84 -24 -156 -43 -158 -40 -2 2 13 8 34 14 22 6 84 24 139 40 55
16 109 30 120 30 11 0 -50 -20 -135 -44z m-483 29 c-3 -3 -12 -4 -19 -1 -8 3
-5 6 6 6 11 1 17 -2 13 -5z m1766 -26 c-35 -62 -215 -234 -303 -290 -102 -64
-120 -73 -230 -105 -124 -36 -241 -53 -355 -51 -88 2 -91 2 -25 5 116 4 249
24 225 34 -17 6 -17 8 -2 8 9 1 17 6 17 12 0 5 -5 7 -12 3 -8 -5 -9 -2 -5 9 3
10 2 17 -4 17 -5 0 -12 -7 -15 -15 -4 -8 -10 -15 -16 -15 -5 0 -7 4 -4 9 4 5
-48 7 -122 6 l-127 -4 115 10 c138 11 256 38 367 83 93 38 235 125 309 188 35
30 42 34 24 13 -14 -17 -28 -31 -33 -33 -4 -2 -4 -8 -1 -14 3 -5 15 -2 27 9
11 10 17 13 14 6 -4 -6 -3 -14 3 -18 12 -8 98 72 135 125 33 48 43 52 18 8z
m-1406 -94 c-3 -3 -12 -4 -19 -1 -8 3 -5 6 6 6 11 1 17 -2 13 -5z m411 -271
c-10 -2 -28 -2 -40 0 -13 2 -5 4 17 4 22 1 32 -1 23 -4z m-131 -49 c-3 -3 -12
-4 -19 -1 -8 3 -5 6 6 6 11 1 17 -2 13 -5z m50 -10 c-3 -3 -12 -4 -19 -1 -8 3
-5 6 6 6 11 1 17 -2 13 -5z m66 -11 c-7 -2 -21 -2 -30 0 -10 3 -4 5 12 5 17 0
24 -2 18 -5z"/>
<path d="M3040 2960 c-9 -6 -10 -10 -3 -10 6 0 15 5 18 10 8 12 4 12 -15 0z"/>
<path d="M1767 2861 l-77 -25 0 -183 c0 -115 4 -183 10 -183 21 0 137 44 162
62 39 27 51 78 47 205 -6 155 -19 166 -142 124z"/>
<path d="M1600 2826 c0 -9 5 -16 10 -16 6 0 10 4 10 9 0 6 -4 13 -10 16 -5 3
-10 -1 -10 -9z"/>
<path d="M3406 1955 c-9 -26 -7 -32 5 -12 6 10 9 21 6 23 -2 3 -7 -2 -11 -11z"/>
<path d="M3367 1919 c-9 -5 -22 -7 -29 -3 -7 4 -8 3 -4 -4 4 -7 2 -12 -5 -12
-7 0 -10 -3 -7 -6 6 -6 68 23 68 31 0 7 -2 6 -23 -6z"/>
<path d="M2954 3496 c-16 -5 -31 -12 -34 -16 -3 -3 -21 -15 -40 -25 -117 -64
-167 -108 -184 -162 -9 -29 9 -31 24 -3 6 11 15 18 21 15 5 -4 9 -1 9 4 0 6 7
11 15 11 8 0 15 5 15 10 0 6 7 10 15 10 8 0 15 4 15 9 0 10 39 27 53 23 4 -1
7 2 7 6 0 5 6 9 14 9 8 0 44 15 81 33 45 23 62 36 53 41 -7 5 -24 6 -38 3
l-25 -4 24 10 c14 6 32 8 40 5 8 -3 12 -3 8 1 -4 5 2 13 13 19 19 10 17 11
-18 11 -22 0 -52 -4 -68 -10z"/>
<path d="M2310 3440 c-9 -6 -10 -10 -3 -10 6 0 15 5 18 10 8 12 4 12 -15 0z"/>
<path d="M2065 3210 c-3 -5 -1 -10 4 -10 6 0 11 5 11 10 0 6 -2 10 -4 10 -3 0
-8 -4 -11 -10z"/>
<path d="M2322 2612 c-2 -214 -5 -283 -14 -280 -6 2 -21 -5 -32 -16 -19 -19
-21 -35 -24 -197 l-3 -176 78 22 78 23 0 306 0 306 98 32 c118 39 115 48 -4
14 -62 -18 -86 -21 -91 -13 -7 11 -12 51 -9 70 1 5 -3 6 -9 2 -6 -3 -7 -12 -3
-18 3 -7 -3 -4 -14 6 -17 15 -23 16 -30 5 -5 -8 -10 29 -14 92 -3 67 -6 2 -7
-178z m36 40 c2 -7 -3 -12 -12 -12 -9 0 -16 7 -16 16 0 17 22 14 28 -4z"/>
<path d="M2631 2591 c-1 -131 -3 -152 -15 -142 -10 8 -16 9 -21 1 -3 -5 -4
-10 0 -10 3 0 -2 -16 -10 -36 -11 -28 -15 -76 -15 -199 l0 -163 68 20 c37 11
73 26 80 32 9 9 10 70 3 291 -6 154 -10 297 -10 318 0 25 -4 36 -11 32 -6 -4
-8 -16 -5 -28 5 -19 4 -19 -9 3 -10 15 -15 19 -16 10 0 -13 -1 -13 -10 0 -9
13 -10 13 -11 0 0 -10 -3 -8 -9 5 -5 12 -9 -39 -9 -134z"/>
</g>
</svg>
